<svg xmlns="http://www.w3.org/2000/svg" width="436" height="196" viewBox="0 0 436 196" role="img" aria-label="Languages: Python 85%, TypeScript 6%, JavaScript 3%, Lua 2%, Jupyter Notebook 1%, Other 3%">
<title>Languages: Python 85%, TypeScript 6%, JavaScript 3%, Lua 2%, Jupyter Notebook 1%, Other 3%</title>
<style>
  .sans { font-family: Inter, -apple-system, 'Segoe UI', Helvetica, Arial, sans-serif; }
  .mono { font-family: 'JetBrains Mono', ui-monospace, SFMono-Regular, Consolas, 'Liberation Mono', monospace; }
  .kicker { font-family: 'JetBrains Mono', ui-monospace, SFMono-Regular, Consolas, 'Liberation Mono', monospace; font-size: 11px; letter-spacing: 0.14em; fill: #8A8A85; }
  /* "backwards" hides elements only while the animation runs, so a renderer that
     skips animation still shows everything. */
  .rise { animation: rise 520ms cubic-bezier(.2,.7,.2,1) backwards; }
  @keyframes rise { from { opacity: 0; transform: translateY(4px); } to { opacity: 1; transform: none; } }
  @media (prefers-reduced-motion: reduce) { .rise { animation: none; } }
</style>
<rect x="0.5" y="0.5" width="435" height="195" fill="#0B0B0B" stroke="#2E2E2C"/>

<rect x="28" y="26" width="10" height="1.5" fill="#C9955A"/><text x="46" y="31" class="kicker">LANGUAGES</text>
<g class="rise"><circle cx="104" cy="112" r="50" fill="none" stroke="#C9955A" stroke-width="16" stroke-dasharray="264.21 314.16" stroke-dashoffset="0.00" transform="rotate(-90 104 112)"/><circle cx="104" cy="112" r="50" fill="none" stroke="#F2F2EF" stroke-width="16" stroke-dasharray="18.17 314.16" stroke-dashoffset="-266.21" transform="rotate(-90 104 112)"/><circle cx="104" cy="112" r="50" fill="none" stroke="#B4B4B0" stroke-width="16" stroke-dasharray="6.42 314.16" stroke-dashoffset="-286.37" transform="rotate(-90 104 112)"/><circle cx="104" cy="112" r="50" fill="none" stroke="#8A8A85" stroke-width="16" stroke-dasharray="4.56 314.16" stroke-dashoffset="-294.79" transform="rotate(-90 104 112)"/><circle cx="104" cy="112" r="50" fill="none" stroke="#4A4A47" stroke-width="16" stroke-dasharray="2.16 314.16" stroke-dashoffset="-301.35" transform="rotate(-90 104 112)"/><circle cx="104" cy="112" r="50" fill="none" stroke="#2E2E2C" stroke-width="16" stroke-dasharray="6.65 314.16" stroke-dashoffset="-305.51" transform="rotate(-90 104 112)"/></g>
<text x="104" y="116" text-anchor="middle" class="mono" font-size="11" fill="#8A8A85">21 langs</text>
<rect x="196" y="62" width="8" height="8" fill="#C9955A"/><text x="212" y="70" class="mono" font-size="11.5" fill="#B4B4B0">Python</text><text x="408" y="70" text-anchor="end" class="mono" font-size="11.5" fill="#8A8A85">85%</text><rect x="196" y="82" width="8" height="8" fill="#F2F2EF"/><text x="212" y="90" class="mono" font-size="11.5" fill="#B4B4B0">TypeScript</text><text x="408" y="90" text-anchor="end" class="mono" font-size="11.5" fill="#8A8A85">6%</text><rect x="196" y="102" width="8" height="8" fill="#B4B4B0"/><text x="212" y="110" class="mono" font-size="11.5" fill="#B4B4B0">JavaScript</text><text x="408" y="110" text-anchor="end" class="mono" font-size="11.5" fill="#8A8A85">3%</text><rect x="196" y="122" width="8" height="8" fill="#8A8A85"/><text x="212" y="130" class="mono" font-size="11.5" fill="#B4B4B0">Lua</text><text x="408" y="130" text-anchor="end" class="mono" font-size="11.5" fill="#8A8A85">2%</text><rect x="196" y="142" width="8" height="8" fill="#4A4A47"/><text x="212" y="150" class="mono" font-size="11.5" fill="#B4B4B0">Jupyter Notebook</text><text x="408" y="150" text-anchor="end" class="mono" font-size="11.5" fill="#8A8A85">1%</text><rect x="196" y="162" width="8" height="8" fill="#2E2E2C"/><text x="212" y="170" class="mono" font-size="11.5" fill="#B4B4B0">Other</text><text x="408" y="170" text-anchor="end" class="mono" font-size="11.5" fill="#8A8A85">3%</text>
</svg>
