<svg xmlns="http://www.w3.org/2000/svg" width="880" height="112" viewBox="0 0 880 112" role="img" aria-label="31 Public repos, 26 Stars earned, 3,159 Contributions / yr, 21 Languages">
<title>31 Public repos, 26 Stars earned, 3,159 Contributions / yr, 21 Languages</title>
<style>
  .sans { font-family: Inter, -apple-system, 'Segoe UI', Helvetica, Arial, sans-serif; }
  .mono { font-family: 'JetBrains Mono', ui-monospace, SFMono-Regular, Consolas, 'Liberation Mono', monospace; }
  .kicker { font-family: 'JetBrains Mono', ui-monospace, SFMono-Regular, Consolas, 'Liberation Mono', monospace; font-size: 11px; letter-spacing: 0.14em; fill: #8A8A85; }
  /* "backwards" hides elements only while the animation runs, so a renderer that
     skips animation still shows everything. */
  .rise { animation: rise 520ms cubic-bezier(.2,.7,.2,1) backwards; }
  @keyframes rise { from { opacity: 0; transform: translateY(4px); } to { opacity: 1; transform: none; } }
  @media (prefers-reduced-motion: reduce) { .rise { animation: none; } }
</style>
<g class="rise" style="animation-delay:0ms">
<rect x="0.5" y="0.5" width="210" height="111" fill="#0B0B0B" stroke="#2E2E2C"/>
<g transform="translate(97.5 18) scale(1)" stroke="#8A8A85" stroke-width="1.3" stroke-linecap="round" stroke-linejoin="round"><path d="M3 2.5h8.5V14H3.8A1.3 1.3 0 0 1 2.5 12.7V3a.5.5 0 0 1 .5-.5Z M2.5 12.2c0-.7.6-1.2 1.3-1.2h7.7" fill="none"/></g>
<text x="105.5" y="70" text-anchor="middle" class="mono" font-size="28" font-weight="600" fill="#F2F2EF">31</text>
<text x="105.5" y="92" text-anchor="middle" class="kicker" font-size="10">PUBLIC REPOS</text>
</g>
<g class="rise" style="animation-delay:90ms">
<rect x="223.5" y="0.5" width="210" height="111" fill="#0B0B0B" stroke="#2E2E2C"/>
<g transform="translate(320.5 18) scale(1)" stroke="#8A8A85" stroke-width="1.3" stroke-linecap="round" stroke-linejoin="round"><path d="M8 1.8l1.9 3.9 4.3.6-3.1 3 .7 4.3L8 11.6l-3.8 2 .7-4.3-3.1-3 4.3-.6Z" fill="none"/></g>
<text x="328.5" y="70" text-anchor="middle" class="mono" font-size="28" font-weight="600" fill="#F2F2EF">26</text>
<text x="328.5" y="92" text-anchor="middle" class="kicker" font-size="10">STARS EARNED</text>
</g>
<g class="rise" style="animation-delay:180ms">
<rect x="446.5" y="0.5" width="210" height="111" fill="#0B0B0B" stroke="#2E2E2C"/>
<g transform="translate(543.5 18) scale(1)" stroke="#8A8A85" stroke-width="1.3" stroke-linecap="round" stroke-linejoin="round"><path d="M1.5 8.5h3l1.8-4.5 3.4 8 1.8-3.5h3" fill="none"/></g>
<text x="551.5" y="70" text-anchor="middle" class="mono" font-size="28" font-weight="600" fill="#F2F2EF">3,159</text>
<text x="551.5" y="92" text-anchor="middle" class="kicker" font-size="10">CONTRIBUTIONS / YR</text>
</g>
<g class="rise" style="animation-delay:270ms">
<rect x="669.5" y="0.5" width="210" height="111" fill="#0B0B0B" stroke="#2E2E2C"/>
<g transform="translate(766.5 18) scale(1)" stroke="#8A8A85" stroke-width="1.3" stroke-linecap="round" stroke-linejoin="round"><path d="M5.5 4 1.8 8l3.7 4M10.5 4l3.7 4-3.7 4" fill="none"/></g>
<text x="774.5" y="70" text-anchor="middle" class="mono" font-size="28" font-weight="600" fill="#F2F2EF">21</text>
<text x="774.5" y="92" text-anchor="middle" class="kicker" font-size="10">LANGUAGES</text>
</g>
</svg>
